<svg width="192" height="136" viewBox="0 0 192 136" fill="none" xmlns="http://www.w3.org/2000/svg">
<path d="M80.8637 95.9565H25.3203C23.0188 96.0903 20.2311 95.6361 21.3575 90.0753C21.3737 89.9861 22.7757 87.7675 22.8486 87.7188L22.8527 87.7147C24.8867 86.36 26.8195 85.9342 28.2134 85.8449C29.2223 85.776 29.9435 84.8512 29.7612 83.8575C29.3641 81.6592 29.6072 75.8145 33.0554 73.6689C38.4728 70.3024 44.113 73.7135 44.113 73.7135C44.113 73.7135 46.2929 66.1369 55.6933 64.4334C65.0937 62.7299 71.0379 69.7427 71.0379 69.7427C71.0379 69.7427 75.0087 67.9662 79.4942 70.7729C83.9796 73.5756 83.3799 78.9052 82.136 80.0287C80.8961 81.1522 87.2819 80.3694 88.461 85.8896C89.7536 91.9248 85.0939 94.1151 80.8637 95.9565Z" fill="#5C88F0"/>
<path d="M118.676 69.9901H174.22C176.517 70.1199 179.309 69.6697 178.182 64.1049C178.162 64.0156 176.764 61.8011 176.691 61.7483H176.687C174.649 60.3896 172.72 59.9678 171.322 59.8745C170.318 59.8096 169.596 58.8808 169.775 57.887C170.176 55.6928 169.933 49.844 166.48 47.7025C161.067 44.336 155.423 47.743 155.423 47.743C155.423 47.743 153.247 40.1705 143.846 38.467C134.446 36.7595 128.502 43.7763 128.502 43.7763C128.502 43.7763 124.527 41.9998 120.046 44.8025C115.56 47.6092 116.16 52.9387 117.4 54.0582C118.644 55.1817 112.258 54.4029 111.079 59.9191C109.786 65.9544 114.442 68.1487 118.676 69.9901Z" fill="#5C88F0"/>
<path d="M95.8598 32.4599C98.7164 32.4599 101.05 34.6947 101.208 37.5177L90.5113 37.542C90.6572 34.7109 92.9951 32.4599 95.8598 32.4599ZM128.749 41.5899C128.745 39.3023 126.885 37.4487 124.6 37.4568L106.427 37.5014C106.257 31.8069 101.593 27.2398 95.8598 27.2398C90.1102 27.2398 85.4342 31.8352 85.2965 37.5582L68.319 37.5988C66.0337 37.6069 64.1861 39.4645 64.1902 41.7562L64.3887 119.769C64.3968 122.056 66.2525 123.906 68.5419 123.902L124.819 123.756C127.104 123.752 128.956 121.89 128.948 119.603L128.749 41.5899Z" fill="white"/>
<path d="M95.8597 33.0722C93.5541 33.0722 91.6214 34.7189 91.2 36.9253L100.515 36.9051C100.086 34.7108 98.153 33.0722 95.8597 33.0722ZM89.8669 38.1584L89.8993 37.5135C90.0614 34.3336 92.6789 31.8432 95.8597 31.8432C99.0282 31.8432 101.646 34.3214 101.82 37.481L101.856 38.13L89.8669 38.1584ZM95.8597 27.8562C90.5031 27.8562 86.0379 32.2123 85.9082 37.5702L85.892 38.1705L68.323 38.2151C67.3789 38.2151 66.4956 38.5842 65.8311 39.2535C65.1666 39.9227 64.8019 40.811 64.8059 41.752L65.0045 119.765C65.0085 121.711 66.5968 123.289 68.5377 123.285L124.819 123.143C126.763 123.135 128.34 121.549 128.336 119.602L128.137 41.5897C128.133 40.6487 127.764 39.7645 127.096 39.0994C126.431 38.4342 125.548 38.0691 124.612 38.0691H124.6L105.831 38.1178L105.811 37.5216C105.653 32.0987 101.281 27.8562 95.8597 27.8562ZM68.5296 124.514C65.9121 124.514 63.7848 122.389 63.7767 119.769L63.5781 41.756C63.5741 40.4865 64.0644 39.29 64.9599 38.3855C65.8554 37.4851 67.0506 36.9902 68.3189 36.9862L84.7129 36.9416C84.9196 34.2362 86.0905 31.7256 88.0435 29.8112C90.1465 27.7588 92.922 26.6232 95.8597 26.6232C98.7892 26.6232 101.561 27.7507 103.66 29.7949C105.609 31.6931 106.784 34.1916 107.006 36.8848L124.6 36.8402H124.612C125.876 36.8402 127.067 37.335 127.963 38.2273C128.862 39.1237 129.361 40.3161 129.365 41.5897L129.563 119.602C129.567 122.227 127.44 124.364 124.823 124.372L68.5417 124.514H68.5296Z" fill="#061D53"/>
<path d="M77.8084 119.708L115.532 119.615C120.908 119.598 125.256 115.222 125.244 109.84L125.094 51.3729C125.082 45.9865 120.71 41.6345 115.333 41.6466L77.6099 41.744C72.233 41.7561 67.8813 46.1325 67.8975 51.5189L68.0434 109.986C68.0596 115.368 72.4316 119.724 77.8084 119.708Z" fill="white"/>
<path d="M122.967 42.2428H122.963L69.98 42.3767C69.583 42.3807 69.2061 42.5349 68.9265 42.8188C68.6429 43.1027 68.489 43.4759 68.489 43.8774L68.6794 117.623C68.6794 118.447 69.352 119.116 70.1705 119.116H70.1746L123.157 118.978C123.984 118.978 124.652 118.305 124.648 117.481L124.462 43.7354C124.462 43.3339 124.304 42.9607 124.02 42.6768C123.741 42.397 123.364 42.2428 122.967 42.2428ZM70.1705 120.345C68.6754 120.345 67.4558 119.124 67.4517 117.627L67.2612 43.8815C67.2612 43.1514 67.5408 42.4659 68.0554 41.9508C68.5659 41.4357 69.2507 41.1518 69.976 41.1477L122.959 41.0139C123.692 41.0098 124.373 41.2937 124.887 41.8048C125.402 42.3199 125.69 43.0054 125.69 43.7314L125.876 117.477C125.88 118.978 124.664 120.203 123.161 120.207L70.1786 120.345H70.1705Z" fill="#061D53"/>
<path d="M80.0654 102.754L112.161 102.673C113.105 102.673 113.866 101.902 113.862 100.957L113.858 99.0346C113.858 98.0895 113.088 97.327 112.144 97.327L80.0533 97.4122C79.1092 97.4122 78.3434 98.1828 78.3474 99.1279L78.3515 101.05C78.3556 101.995 79.1214 102.758 80.0654 102.754Z" fill="white"/>
<path d="M112.318 97.9437L79.883 98.0248C79.6358 98.0248 79.4049 98.1222 79.2306 98.3006C79.0564 98.475 78.9592 98.7062 78.9592 98.9537L78.9673 101.217C78.9673 101.728 79.3806 102.142 79.8911 102.142L112.327 102.061C112.574 102.056 112.809 101.963 112.983 101.785C113.157 101.61 113.25 101.379 113.25 101.132L113.246 98.8644C113.242 98.6211 113.149 98.3858 112.971 98.2114C112.797 98.037 112.566 97.9437 112.318 97.9437ZM79.8911 103.371C78.708 103.371 77.7395 102.409 77.7395 101.221L77.7314 98.9577C77.7314 98.3818 77.9543 97.8383 78.3595 97.4327C78.7647 97.023 79.3036 96.7999 79.879 96.7959L112.314 96.7148H112.322C112.894 96.7148 113.433 96.9378 113.838 97.3394C114.247 97.749 114.47 98.2885 114.474 98.8644L114.478 101.128C114.478 101.704 114.259 102.243 113.85 102.653C113.445 103.062 112.906 103.285 112.331 103.289L79.8952 103.371H79.8911Z" fill="#061D53"/>
<path d="M80.0049 112.229L112.096 112.144C113.04 112.144 113.806 111.377 113.802 110.432L113.798 108.506C113.794 107.561 113.028 106.798 112.084 106.802L79.9887 106.883C79.0446 106.883 78.2828 107.654 78.2869 108.599L78.291 110.521C78.291 111.466 79.0608 112.229 80.0049 112.229Z" fill="white"/>
<path d="M112.258 107.414L79.8222 107.496C79.3117 107.5 78.8984 107.913 78.8984 108.424L78.9025 110.692C78.9065 111.199 79.3198 111.616 79.8304 111.612L112.266 111.531C112.513 111.531 112.744 111.434 112.918 111.259C113.092 111.081 113.19 110.85 113.19 110.602L113.182 108.339C113.182 108.092 113.084 107.857 112.91 107.682C112.736 107.512 112.505 107.414 112.258 107.414ZM79.8304 112.841C78.6432 112.841 77.6788 111.88 77.6747 110.692L77.6707 108.428C77.6666 107.24 78.631 106.271 79.8182 106.267L112.254 106.185H112.258C112.833 106.185 113.372 106.409 113.777 106.814C114.182 107.22 114.409 107.759 114.409 108.335L114.417 110.598C114.417 111.174 114.194 111.718 113.789 112.123C113.384 112.533 112.845 112.76 112.27 112.76L79.8344 112.841H79.8304Z" fill="#061D53"/>
<path d="M102.918 69.7143C105.872 67.6985 107.813 64.3077 107.813 60.4627C107.813 54.2854 102.813 49.2803 96.6419 49.2803C90.4709 49.2803 85.4708 54.2854 85.4708 60.4627C85.4708 64.3077 87.4117 67.6985 90.3655 69.7143C83.8987 72.229 79.3159 78.5199 79.3159 85.8855V90.3228H113.968V85.8855C113.968 78.5199 109.385 72.229 102.918 69.7143Z" fill="#061D53"/>
<path d="M98.6556 49.9415C98.6192 49.9415 98.5786 49.9415 98.5381 49.9334C98.2707 49.8806 97.9952 49.8401 97.7197 49.8076C97.3834 49.7711 97.1402 49.4669 97.1767 49.1303C97.2172 48.7936 97.517 48.5503 97.8574 48.5868C98.1613 48.6192 98.4692 48.6679 98.769 48.7247C99.1054 48.7896 99.3202 49.11 99.2594 49.4426C99.2027 49.7387 98.9433 49.9415 98.6556 49.9415ZM93.449 50.1808C93.1815 50.1808 92.9344 50.0023 92.8574 49.7346C92.7642 49.4101 92.9505 49.0694 93.2787 48.9721C93.5745 48.891 93.8744 48.8139 94.1783 48.7531C94.5065 48.6841 94.8347 48.8991 94.8995 49.2317C94.9684 49.5643 94.7537 49.8888 94.4214 49.9577C94.154 50.0145 93.8825 50.0794 93.6191 50.1564C93.5624 50.1727 93.5057 50.1808 93.449 50.1808ZM102.691 51.5882C102.574 51.5882 102.456 51.5558 102.351 51.4868C102.124 51.3327 101.885 51.1907 101.642 51.0569C101.346 50.8906 101.241 50.5174 101.403 50.2213C101.569 49.9253 101.942 49.8157 102.238 49.982C102.505 50.128 102.772 50.2903 103.028 50.4606C103.311 50.6472 103.388 51.0285 103.202 51.3124C103.084 51.4909 102.89 51.5882 102.691 51.5882ZM89.5794 52.1844C89.3971 52.1844 89.2188 52.1033 89.0972 51.9532C88.8865 51.6896 88.9311 51.3002 89.1945 51.0893C89.4335 50.8987 89.6848 50.7121 89.94 50.5418C90.2196 50.3511 90.6045 50.4241 90.7909 50.704C90.9814 50.9839 90.9084 51.3692 90.6288 51.5558C90.4019 51.7139 90.175 51.8762 89.9603 52.0506C89.8468 52.1398 89.7131 52.1844 89.5794 52.1844ZM105.791 54.6505C105.597 54.6505 105.402 54.5572 105.285 54.3828C105.131 54.1516 104.964 53.9285 104.79 53.7135C104.58 53.4499 104.624 53.0605 104.887 52.8496C105.151 52.6387 105.54 52.6793 105.75 52.947C105.941 53.1863 106.127 53.4377 106.298 53.6892C106.488 53.9691 106.415 54.3544 106.135 54.545C106.03 54.614 105.913 54.6505 105.791 54.6505ZM86.7674 55.5144C86.6661 55.5144 86.5647 55.49 86.4675 55.4373C86.1717 55.2751 86.0663 54.8979 86.2284 54.6018C86.3783 54.3341 86.5404 54.0664 86.7106 53.8109C86.897 53.527 87.2779 53.4499 87.5615 53.6365C87.8411 53.823 87.9222 54.2043 87.7317 54.4882C87.5818 54.7194 87.4359 54.9587 87.3022 55.198C87.1928 55.4008 86.9821 55.5144 86.7674 55.5144ZM107.489 58.6659C107.201 58.6659 106.946 58.4671 106.885 58.1751C106.832 57.9074 106.763 57.6357 106.686 57.372C106.593 57.0435 106.78 56.7028 107.108 56.6095C107.432 56.5162 107.772 56.7028 107.866 57.0313C107.955 57.3234 108.028 57.6276 108.088 57.9277C108.157 58.2603 107.943 58.5848 107.61 58.6537C107.57 58.6618 107.529 58.6659 107.489 58.6659ZM85.4424 59.6677H85.3735C85.0372 59.6271 84.7941 59.3229 84.8346 58.9863C84.867 58.6821 84.9156 58.3739 84.9723 58.0697C85.0372 57.7371 85.3573 57.518 85.6896 57.5829C86.0259 57.6478 86.2406 57.9723 86.1798 58.3049C86.1272 58.5726 86.0826 58.8484 86.0542 59.1242C86.0178 59.4365 85.7544 59.6677 85.4424 59.6677ZM107.521 63.0301C107.481 63.0301 107.444 63.0261 107.404 63.0179C107.071 62.9531 106.853 62.6326 106.917 62.3C106.966 62.0283 107.007 61.7525 107.039 61.4807C107.075 61.14 107.379 60.8967 107.716 60.9332C108.052 60.9737 108.295 61.2739 108.259 61.6146C108.226 61.9188 108.178 62.227 108.121 62.5272C108.064 62.8233 107.809 63.0301 107.521 63.0301ZM85.8071 64.0157C85.5397 64.0157 85.2924 63.8413 85.2154 63.5736C85.1304 63.2775 85.0575 62.9733 84.9967 62.6732C84.9278 62.3406 85.1425 62.0161 85.4748 61.9472C85.807 61.8782 86.1312 62.0932 86.2001 62.4258C86.2528 62.6975 86.3217 62.9693 86.3946 63.2329C86.4878 63.5574 86.3014 63.8981 85.9732 63.9914C85.9205 64.0076 85.8598 64.0157 85.8071 64.0157ZM105.88 67.0699C105.763 67.0699 105.645 67.0374 105.544 66.9685C105.26 66.7819 105.183 66.4006 105.37 66.1167C105.52 65.8855 105.661 65.6503 105.795 65.4069C105.961 65.1108 106.334 65.0013 106.63 65.1676C106.926 65.3299 107.035 65.703 106.873 65.9991C106.723 66.2708 106.561 66.5385 106.395 66.7941C106.277 66.9725 106.079 67.0699 105.88 67.0699ZM87.8046 67.8932C87.6263 67.8932 87.4481 67.8121 87.3265 67.662C87.1321 67.4187 86.9497 67.1713 86.7754 66.9157C86.589 66.6318 86.662 66.2506 86.9416 66.0599C87.2212 65.8693 87.6061 65.9464 87.7925 66.2262C87.9465 66.4534 88.1126 66.6805 88.2868 66.8955C88.4975 67.1591 88.4529 67.5485 88.1896 67.7594C88.0761 67.8486 87.9383 67.8932 87.8046 67.8932ZM89.3322 70.5742C89.0972 70.5742 88.8743 70.4404 88.773 70.2173C88.6312 69.9091 88.765 69.544 89.0729 69.4021C89.3484 69.2763 89.628 69.1546 89.9116 69.0411C90.2236 68.9194 90.5802 69.0695 90.7058 69.3858C90.8314 69.7022 90.6775 70.0591 90.3655 70.1849C90.1021 70.2903 89.8427 70.3998 89.5875 70.5174C89.5024 70.558 89.4173 70.5742 89.3322 70.5742ZM104.328 70.85C104.235 70.85 104.142 70.8298 104.053 70.7851C103.802 70.6554 103.546 70.5337 103.291 70.4201C103.161 70.3633 103.06 70.266 102.999 70.1524C102.748 70.2254 102.468 70.1362 102.314 69.909C102.124 69.6292 102.197 69.2439 102.477 69.0532C102.703 68.8991 102.93 68.7328 103.145 68.5625C103.408 68.3475 103.793 68.3921 104.008 68.6558C104.186 68.8788 104.182 69.1871 104.024 69.4061C104.219 69.4953 104.413 69.5886 104.604 69.686C104.908 69.8401 105.029 70.2092 104.879 70.5093C104.77 70.7243 104.555 70.85 104.328 70.85ZM85.6166 72.8861C85.4383 72.8861 85.2601 72.8091 85.1385 72.6631C84.9278 72.3994 84.9643 72.01 85.2276 71.7951C85.4626 71.6044 85.7058 71.4179 85.9489 71.2394C86.2204 71.0407 86.6053 71.0975 86.8079 71.3733C87.0064 71.645 86.9456 72.0303 86.6741 72.2331C86.4472 72.3994 86.2203 72.5738 86.0056 72.7482C85.8921 72.8415 85.7544 72.8861 85.6166 72.8861ZM107.955 73.2958C107.813 73.2958 107.667 73.2471 107.55 73.1417C107.339 72.9591 107.12 72.7766 106.901 72.6022C106.634 72.3913 106.589 72.006 106.8 71.7383C107.011 71.4706 107.396 71.426 107.663 71.6369C107.898 71.8235 108.133 72.0222 108.36 72.2169C108.615 72.444 108.64 72.8294 108.417 73.0849C108.295 73.2268 108.125 73.2958 107.955 73.2958ZM82.5979 76.0539C82.4683 76.0539 82.3427 76.0174 82.2333 75.9362C81.9618 75.7334 81.901 75.3481 82.1036 75.0764C82.2819 74.833 82.4683 74.5937 82.6628 74.3585C82.8775 74.0948 83.2625 74.0583 83.5258 74.2733C83.7892 74.4882 83.8257 74.8736 83.6109 75.1372C83.4326 75.3562 83.2584 75.5793 83.0923 75.8064C82.9708 75.9687 82.7843 76.0539 82.5979 76.0539ZM110.86 76.573C110.661 76.573 110.471 76.4757 110.349 76.3013C110.191 76.0701 110.025 75.8389 109.855 75.6158C109.653 75.3441 109.705 74.9587 109.973 74.7559C110.244 74.5491 110.629 74.6018 110.836 74.8736C111.018 75.1129 111.196 75.3603 111.366 75.6077C111.557 75.8916 111.484 76.2729 111.204 76.4635C111.099 76.5365 110.977 76.573 110.86 76.573ZM80.4626 79.8746C80.3897 79.8746 80.3087 79.8624 80.2357 79.83C79.9197 79.7042 79.7697 79.3473 79.8954 79.0309C80.0088 78.7511 80.1304 78.4712 80.256 78.1995C80.3978 77.8912 80.7625 77.7574 81.0704 77.8993C81.3783 78.0413 81.5121 78.4063 81.3703 78.7146C81.2528 78.9701 81.1393 79.2297 81.0339 79.4893C80.9367 79.7286 80.7057 79.8746 80.4626 79.8746ZM112.849 80.4708C112.598 80.4708 112.363 80.3126 112.274 80.0652C112.177 79.7975 112.076 79.5339 111.966 79.2743C111.836 78.962 111.982 78.601 112.294 78.4672C112.606 78.3374 112.967 78.4874 113.101 78.7997C113.214 79.0756 113.328 79.3635 113.429 79.6475C113.542 79.9638 113.376 80.3167 113.06 80.4343C112.991 80.4586 112.918 80.4708 112.849 80.4708ZM79.3605 84.1131L79.2835 84.105C78.9472 84.0644 78.7081 83.7562 78.7527 83.4195C78.7891 83.1194 78.8378 82.8152 78.8905 82.5191C78.9512 82.1865 79.2713 81.9634 79.6036 82.0242C79.9358 82.0851 80.1587 82.4055 80.0979 82.7381C80.0493 83.0139 80.0047 83.2978 79.9682 83.5736C79.9277 83.8859 79.6643 84.1131 79.3605 84.1131ZM113.798 84.7458C113.486 84.7458 113.218 84.5065 113.186 84.1861C113.161 83.9062 113.129 83.6223 113.088 83.3465C113.04 83.0099 113.275 82.6975 113.611 82.6489C113.943 82.6002 114.255 82.8354 114.304 83.1721C114.349 83.4682 114.381 83.7724 114.409 84.0725C114.442 84.4132 114.191 84.7093 113.854 84.7418L113.798 84.7458ZM79.2186 88.4935C78.8783 88.4935 78.6028 88.2218 78.6028 87.8811V87.0009C78.6028 86.6643 78.8783 86.3885 79.2186 86.3885C79.5549 86.3885 79.8305 86.6643 79.8305 87.0009V87.8811C79.8305 88.2218 79.5549 88.4935 79.2186 88.4935ZM113.871 89.1303C113.534 89.1303 113.259 88.8586 113.259 88.5179V87.6377C113.259 87.3011 113.534 87.0253 113.871 87.0253C114.211 87.0253 114.486 87.3011 114.486 87.6377V88.5179C114.486 88.8586 114.211 89.1303 113.871 89.1303ZM81.3135 90.7852H80.4383C80.098 90.7852 79.8224 90.5094 79.8224 90.1727C79.8224 89.832 80.098 89.5562 80.4383 89.5562H81.3135C81.6539 89.5562 81.9294 89.832 81.9294 90.1727C81.9294 90.5094 81.6539 90.7852 81.3135 90.7852ZM85.7017 90.7852H84.8224C84.4861 90.7852 84.2106 90.5094 84.2106 90.1727C84.2106 89.832 84.4861 89.5562 84.8224 89.5562H85.7017C86.042 89.5562 86.3136 89.832 86.3136 90.1727C86.3136 90.5094 86.042 90.7852 85.7017 90.7852ZM90.0859 90.7852H89.2107C88.8703 90.7852 88.5947 90.5094 88.5947 90.1727C88.5947 89.832 88.8703 89.5562 89.2107 89.5562H90.0859C90.4262 89.5562 90.7017 89.832 90.7017 90.1727C90.7017 90.5094 90.4262 90.7852 90.0859 90.7852ZM94.474 90.7852H93.5948C93.2544 90.7852 92.983 90.5094 92.983 90.1727C92.983 89.832 93.2544 89.5562 93.5948 89.5562H94.474C94.8103 89.5562 95.0859 89.832 95.0859 90.1727C95.0859 90.5094 94.8103 90.7852 94.474 90.7852ZM98.8582 90.7852H97.9789C97.6426 90.7852 97.3671 90.5094 97.3671 90.1727C97.3671 89.832 97.6426 89.5562 97.9789 89.5562H98.8582C99.1986 89.5562 99.4701 89.832 99.4701 90.1727C99.4701 90.5094 99.1986 90.7852 98.8582 90.7852ZM103.242 90.7852H102.367C102.027 90.7852 101.751 90.5094 101.751 90.1727C101.751 89.832 102.027 89.5562 102.367 89.5562H103.242C103.583 89.5562 103.858 89.832 103.858 90.1727C103.858 90.5094 103.583 90.7852 103.242 90.7852ZM107.631 90.7852H106.751C106.415 90.7852 106.139 90.5094 106.139 90.1727C106.139 89.832 106.415 89.5562 106.751 89.5562H107.631C107.967 89.5562 108.242 89.832 108.242 90.1727C108.242 90.5094 107.967 90.7852 107.631 90.7852ZM112.015 90.7852H111.14C110.799 90.7852 110.524 90.5094 110.524 90.1727C110.524 89.832 110.799 89.5562 111.14 89.5562H112.015C112.355 89.5562 112.631 89.832 112.631 90.1727C112.631 90.5094 112.355 90.7852 112.015 90.7852Z" fill="#061D53"/>
<path d="M42.0505 105.354L31.8559 98.6413C31.2968 98.2762 31.1387 97.5218 31.5074 96.9621L38.2133 86.7573C38.582 86.1975 39.3317 86.0434 39.8908 86.4125L50.0854 93.1251C50.6445 93.4902 50.7986 94.2446 50.4339 94.8043L43.728 105.009C43.3593 105.569 42.6097 105.723 42.0505 105.354Z" fill="white"/>
<path d="M31.694 97.8017L42.8854 105.171L50.2476 93.9647L39.0563 86.595L31.694 97.8017ZM42.9826 106.534C42.8165 106.534 42.6503 106.486 42.5045 106.392L30.7256 98.6331C30.5271 98.5074 30.3933 98.3087 30.3488 98.0775C30.3001 97.8503 30.3447 97.6151 30.4744 97.4204L38.2216 85.6256C38.4891 85.2241 39.032 85.1105 39.4372 85.3742L51.216 93.1332C51.6212 93.3969 51.7307 93.9444 51.4673 94.346L43.72 106.141C43.5904 106.335 43.3919 106.469 43.1649 106.518C43.1042 106.53 43.0434 106.534 42.9826 106.534Z" fill="#061D53"/>
<path d="M36.1631 96.9219L37.719 97.948L38.7442 96.3905L37.1883 95.3644L36.1631 96.9219ZM37.8811 99.396C37.7596 99.396 37.6339 99.3595 37.5205 99.2865L35.0123 97.6357C34.8665 97.5384 34.7652 97.3923 34.7287 97.2179C34.6963 97.0476 34.7287 96.8691 34.826 96.7231L36.4751 94.2125C36.5724 94.0664 36.7182 93.965 36.8924 93.9285C37.0626 93.8961 37.2409 93.9285 37.3868 94.0259L39.8949 95.6767C40.1988 95.8754 40.2799 96.2851 40.0813 96.5893L38.4322 99.0999C38.3065 99.2905 38.0959 99.396 37.8811 99.396Z" fill="#061D53"/>
<path d="M39.5668 93.2266C39.3885 93.2266 39.2062 93.1738 39.0563 93.0684C38.8496 92.9264 38.7078 92.7033 38.6713 92.4559L38.4322 90.87C38.3836 90.5334 38.6146 90.2211 38.9509 90.1724C39.2832 90.1197 39.5992 90.3509 39.6478 90.6875L39.8342 91.9327L42.7273 91.2919C43.0555 91.2188 43.3837 91.4257 43.4566 91.7583C43.5295 92.0909 43.3229 92.4194 42.9906 92.4924L39.7653 93.2063C39.7005 93.2225 39.6357 93.2266 39.5668 93.2266Z" fill="#061D53"/>
<path d="M46.3698 96.293C46.2523 96.293 46.1388 96.2605 46.0335 96.1916L43.8414 94.7476C43.5618 94.5611 43.4808 94.1798 43.6672 93.8959C43.8536 93.612 44.2345 93.5349 44.5181 93.7215L46.7061 95.1654C46.9898 95.352 47.0708 95.7332 46.8844 96.0131C46.7669 96.1956 46.5684 96.293 46.3698 96.293Z" fill="#061D53"/>
<path d="M43.2217 101.083C43.1042 101.083 42.9867 101.051 42.8854 100.982L40.6933 99.5417C40.4097 99.3552 40.3327 98.9739 40.5191 98.69C40.7055 98.4061 41.0863 98.329 41.37 98.5156L43.558 99.9554C43.8416 100.142 43.9186 100.523 43.7323 100.807C43.6148 100.986 43.4203 101.083 43.2217 101.083Z" fill="#061D53"/>
<path d="M177.757 30.067L178.482 32.0058ZM173.628 31.6245L174.353 33.5633ZM169.653 33.1212L170.382 35.06ZM185.318 41.655L181.403 31.2433C181.168 30.6146 180.467 30.2982 179.843 30.5335L168.421 34.8369C167.797 35.0721 167.481 35.7698 167.716 36.3984L171.63 46.8101C171.865 47.4388 172.562 47.7552 173.19 47.5199L184.608 43.2165C185.236 42.9813 185.553 42.2796 185.318 41.655Z" fill="white"/>
<path d="M168.081 35.6238L172.417 47.155L184.953 42.4298L180.617 30.8986L178.956 31.5232L179.057 31.7909L177.911 32.2249L177.81 31.9572L174.831 33.0808L174.929 33.3444L173.782 33.7784L173.681 33.5107L170.857 34.5774L170.958 34.8411L169.807 35.275L169.71 35.0073L168.081 35.6238ZM172.21 48.4854C172.084 48.4854 171.963 48.457 171.849 48.4083C171.634 48.3109 171.472 48.1365 171.391 47.9175L166.809 35.7252C166.724 35.5062 166.732 35.2669 166.829 35.056C166.926 34.841 167.1 34.6788 167.319 34.5977L169.276 33.8595L169.078 33.3363L170.228 32.9023L170.423 33.4255L173.247 32.3628L173.053 31.8396L174.199 31.4056L174.398 31.9288L177.376 30.8054L177.182 30.2862L178.328 29.8522L178.527 30.3754L180.516 29.6251C180.735 29.5399 180.97 29.548 181.185 29.6453C181.399 29.7427 181.562 29.9171 181.643 30.1361L186.225 42.3284C186.396 42.7786 186.169 43.2856 185.715 43.4559L172.518 48.4286C172.417 48.4651 172.315 48.4854 172.21 48.4854Z" fill="#061D53"/>
<path d="M173.543 38.564L171.93 39.1724L171.322 37.5581L172.935 36.9497L173.543 38.564Z" fill="#061D53"/>
<path d="M177.023 37.2539L175.406 37.8623L174.799 36.248L176.415 35.6396L177.023 37.2539Z" fill="#061D53"/>
<path d="M180.5 35.9438L178.883 36.5522L178.279 34.938L179.892 34.3296L180.5 35.9438Z" fill="#061D53"/>
<path d="M174.463 41.0059L172.85 41.6143L172.242 40L173.855 39.3916L174.463 41.0059Z" fill="#061D53"/>
<path d="M177.939 39.6958L176.326 40.3042L175.719 38.6859L177.335 38.0815L177.939 39.6958Z" fill="#061D53"/>
<path d="M181.419 38.3857L179.803 38.9941L179.199 37.3799L180.812 36.7715L181.419 38.3857Z" fill="#061D53"/>
<path d="M175.382 43.4478L173.766 44.0562L173.162 42.4419L174.775 41.8335L175.382 43.4478Z" fill="#061D53"/>
<path d="M178.859 42.1377L177.246 42.7461L176.638 41.1278L178.251 40.5234L178.859 42.1377Z" fill="#061D53"/>
<path d="M182.335 40.8276L180.723 41.436L180.115 39.8177L181.732 39.2134L182.335 40.8276Z" fill="#061D53"/>
<path d="M38.5779 51.6325L37.2287 60.4258ZM28.351 60.7665L37.2287 60.4258ZM45.2677 59.4037L35.4702 68.1484C35.2108 68.3796 34.8097 68.3593 34.5787 68.0957L28.197 60.9369C27.962 60.6732 27.9863 60.2757 28.2456 60.0405L38.0431 51.2958C38.3024 51.0606 38.7036 51.0849 38.9345 51.3445L45.3163 58.5073C45.5513 58.7669 45.527 59.1685 45.2677 59.4037Z" fill="white"/>
<path d="M37.8568 52.2854L29.0763 60.1256L36.698 59.8336L37.8568 52.2854ZM29.3802 61.3424L35.0488 67.7022L44.8707 58.9291L39.0764 52.4274L37.8366 60.5109C37.8325 60.5637 37.8163 60.6164 37.7961 60.6651C37.7596 60.7502 37.7069 60.8232 37.6421 60.8841C37.5732 60.9449 37.4921 60.9895 37.3989 61.0179C37.3503 61.0342 37.2976 61.0423 37.2409 61.0423L29.3802 61.3424ZM35.0124 69.1299L34.9678 69.1258C34.7652 69.1177 34.5829 69.0285 34.4492 68.8784L27.407 60.9733C27.1314 60.6651 27.1598 60.1905 27.4678 59.9147L38.0027 50.5048C38.1526 50.371 38.3471 50.302 38.5457 50.3142C38.7483 50.3264 38.9305 50.4156 39.0643 50.5657L46.1065 58.4667C46.2402 58.6168 46.305 58.8115 46.2969 59.0102C46.2847 59.213 46.1956 59.3955 46.0457 59.5294L35.5108 68.9393C35.373 69.0609 35.1947 69.1299 35.0124 69.1299Z" fill="#061D53"/>
<path d="M158.008 100.434L145.046 104.62C144.843 104.685 144.624 104.571 144.56 104.368L143.202 100.15L156.898 95.7292L158.259 99.9474C158.324 100.15 158.21 100.369 158.008 100.434Z" fill="white"/>
<path d="M143.976 100.548L145.074 103.963L157.603 99.9189L156.5 96.5038L143.976 100.548ZM144.734 105.33C144.624 105.33 144.515 105.305 144.414 105.253C144.248 105.167 144.126 105.025 144.069 104.847L142.428 99.7567L157.295 94.9544L158.936 100.045C159.053 100.414 158.851 100.807 158.486 100.925L144.949 105.297C144.876 105.317 144.803 105.33 144.734 105.33Z" fill="#061D53"/>
<path d="M156.898 95.729L143.227 100.134L142.639 91.0119C142.615 90.586 142.878 90.1966 143.283 90.0669L151.075 87.5481C151.484 87.4143 151.93 87.5805 152.157 87.9496L156.898 95.729Z" fill="white"/>
<path d="M151.363 88.1162L151.265 88.1324L143.47 90.6511C143.332 90.6958 143.243 90.8255 143.255 90.9716L143.79 99.3106L155.966 95.3804L151.63 88.2703C151.573 88.1729 151.472 88.1162 151.363 88.1162ZM142.663 100.961L142.027 91.0486C141.982 90.3429 142.42 89.698 143.093 89.479L150.889 86.9642C151.569 86.7452 152.307 87.017 152.679 87.6294L157.829 96.074L142.663 100.961Z" fill="#061D53"/>
<path d="M153.105 99.485C153.251 99.9433 153 100.434 152.542 100.58C152.088 100.73 151.598 100.479 151.448 100.02C151.302 99.5621 151.553 99.0713 152.011 98.9253C152.465 98.7752 152.955 99.0267 153.105 99.485Z" fill="#061D53"/>
<path d="M155.97 98.5601C156.116 99.0185 155.868 99.5092 155.411 99.6553C154.953 99.8013 154.462 99.5498 154.317 99.0955C154.167 98.6372 154.418 98.1464 154.876 97.9964C155.334 97.8503 155.824 98.1018 155.97 98.5601Z" fill="#061D53"/>
<path d="M138.166 58.9574L139.892 60.0972ZM140.589 55.2706L142.315 56.4062ZM142.919 51.7175L144.649 52.8573ZM147.789 68.8905L138.506 62.7782C137.947 62.4091 137.789 61.6587 138.158 61.099L144.863 50.8942C145.232 50.3344 145.982 50.1803 146.541 50.5454L155.824 56.6618C156.383 57.0268 156.541 57.7812 156.172 58.3409L149.466 68.5458C149.098 69.1055 148.348 69.2596 147.789 68.8905Z" fill="white"/>
<path d="M138.344 61.9391L148.624 68.7085L155.986 57.5018L145.706 50.7324L144.75 52.1885L144.985 52.3426L144.312 53.3728L144.073 53.2147L142.416 55.7375L142.655 55.8956L141.978 56.9218L141.739 56.7636L139.993 59.4243L140.228 59.5825L139.555 60.6087L139.316 60.4546L138.344 61.9391ZM148.725 70.0713C148.555 70.0713 148.389 70.0226 148.243 69.9293L137.376 62.7705C137.177 62.6407 137.043 62.4461 136.999 62.2149C136.95 61.9837 136.995 61.7525 137.124 61.5537L138.291 59.7772L137.825 59.473L138.502 58.4428L138.968 58.7511L140.714 56.0903L140.252 55.7821L140.925 54.7559L141.391 55.0601L143.048 52.5373L142.582 52.2331L143.259 51.2069L143.721 51.5111L144.872 49.763C145.001 49.5683 145.196 49.4345 145.427 49.3858C145.658 49.3371 145.889 49.3818 146.087 49.5115L156.954 56.6703C157.153 56.8001 157.287 56.9948 157.331 57.226C157.38 57.4531 157.335 57.6884 157.206 57.8831L149.458 69.6779C149.329 69.8725 149.134 70.0064 148.903 70.0551C148.842 70.0672 148.782 70.0713 148.725 70.0713Z" fill="#061D53"/>
<path d="M149.231 56.1955C148.875 56.1955 148.522 56.3699 148.308 56.6903C148.145 56.9377 148.089 57.2338 148.149 57.5218C148.21 57.8138 148.376 58.0612 148.624 58.2235C149.134 58.5601 149.819 58.4182 150.155 57.9071C150.487 57.3961 150.346 56.7106 149.839 56.3739C149.653 56.2523 149.442 56.1955 149.231 56.1955ZM149.227 59.6349C148.79 59.6349 148.344 59.5092 147.951 59.2496C147.428 58.9089 147.072 58.3817 146.946 57.7733C146.82 57.1608 146.942 56.5362 147.282 56.017C147.991 54.9381 149.438 54.642 150.512 55.3478C151.59 56.0576 151.885 57.5056 151.18 58.5845C150.735 59.2618 149.989 59.6349 149.227 59.6349ZM144.316 60.0203C144.045 60.0203 143.777 60.1338 143.591 60.3326L142.935 61.0302L142.931 61.1438L143.348 61.6102C144.483 62.8878 145.941 63.8451 147.558 64.3845L148.154 64.5832C148.194 64.5954 148.239 64.5751 148.259 64.5346L148.636 63.6544C148.761 63.3665 148.741 63.0339 148.583 62.7621C148.299 62.2713 147.696 61.5453 147.262 61.1762C147.003 60.9531 146.715 60.7666 146.407 60.6124C145.901 60.361 144.993 60.0933 144.434 60.0243C144.393 60.0203 144.353 60.0203 144.316 60.0203ZM148.186 65.8203C148.044 65.8203 147.902 65.796 147.765 65.7514L147.173 65.5526C145.35 64.9442 143.709 63.8653 142.432 62.4295L142.015 61.9631C141.557 61.452 141.569 60.6854 142.039 60.1866L142.696 59.4889C143.178 58.9779 143.879 58.7224 144.576 58.8035C145.277 58.8886 146.318 59.1969 146.95 59.5092C147.347 59.708 147.72 59.9513 148.06 60.2393C148.595 60.6976 149.292 61.5332 149.649 62.1456C149.997 62.7499 150.042 63.5003 149.766 64.1411L149.385 65.0253C149.171 65.5202 148.697 65.8203 148.186 65.8203Z" fill="#061D53"/>
<path d="M16.9492 75.1936L15.4621 74.8853C15.6525 73.4738 14.7327 72.1354 13.3146 71.8474L5.74164 70.2859C4.26674 69.9817 2.82015 70.9348 2.51626 72.4152L2.00574 74.9097L1.18325 78.9048L0.672648 81.3992C0.368756 82.8756 1.31692 84.3236 2.79586 84.6278L14.514 87.0411C15.9929 87.3453 17.4354 86.3921 17.7393 84.9117L19.0724 78.4221C19.3763 76.9417 18.4241 75.4978 16.9492 75.1936Z" fill="white"/>
<path d="M5.19044 70.8457C4.20583 70.8457 3.32253 71.5352 3.11994 72.537L1.27229 81.521C1.15883 82.0767 1.26823 82.6405 1.57618 83.115C1.88817 83.5896 2.36627 83.91 2.92138 84.0236L14.6355 86.4369C15.1906 86.5504 15.7578 86.4409 16.2278 86.1327C16.7019 85.8204 17.026 85.3418 17.1395 84.7861L18.4726 78.2965C18.7076 77.1527 17.9661 76.0292 16.8235 75.794L14.7773 75.3722L14.8542 74.8043C15.0001 73.7052 14.2707 72.6709 13.1929 72.4478L5.62 70.8903C5.47414 70.8579 5.33226 70.8457 5.19044 70.8457ZM15.069 87.7104C14.8461 87.7104 14.6152 87.6861 14.3882 87.6415L2.67423 85.2282C1.79902 85.0497 1.04535 84.5387 0.551017 83.7924C0.0607369 83.0461 -0.109379 82.1497 0.068904 81.2736L1.91655 72.2896C2.28528 70.4807 4.06001 69.3125 5.86715 69.6857L13.4402 71.2432C14.9556 71.5555 16.0374 72.8818 16.0982 74.3906L17.0707 74.5894C18.8778 74.9625 20.0447 76.735 19.676 78.5439L18.343 85.0335C18.1606 85.9137 17.6501 86.664 16.9045 87.1588C16.3535 87.5239 15.7173 87.7104 15.069 87.7104Z" fill="#061D53"/>
<path d="M13.3023 77.2784C13.1564 77.9882 12.4635 78.4425 11.7544 78.2964C11.0454 78.1504 10.5875 77.4569 10.7334 76.7471C10.8793 76.0373 11.5721 75.583 12.2812 75.729C12.9903 75.875 13.4482 76.5686 13.3023 77.2784Z" fill="#061D53"/>
<path d="M12.2328 82.4784C12.0869 83.1923 11.3941 83.6466 10.685 83.5005C9.9759 83.3545 9.52202 82.661 9.66789 81.9512C9.81376 81.2414 10.5067 80.783 11.2158 80.9291C11.9248 81.0751 12.3786 81.7686 12.2328 82.4784Z" fill="#061D53"/>
<path d="M8.45636 79.0225C8.31049 79.7323 7.61757 80.1907 6.90849 80.0447C6.19941 79.8986 5.74157 79.2051 5.88744 78.4953C6.03331 77.7855 6.72615 77.3272 7.43524 77.4732C8.14432 77.6192 8.60223 78.3128 8.45636 79.0225Z" fill="#061D53"/>
<path d="M10.948 82.8311C10.8022 82.8311 10.6522 82.7783 10.5347 82.6688L6.75836 79.2131C6.60034 79.0671 6.52742 78.8481 6.57199 78.6372C6.61251 78.4263 6.7624 78.2519 6.965 78.1789L11.811 76.4348C12.1311 76.3172 12.4796 76.4834 12.5971 76.8039C12.7106 77.1243 12.5445 77.4772 12.2284 77.5907L8.3386 78.9941L11.3653 81.7603C11.6125 81.9915 11.6328 82.3808 11.4018 82.6323C11.2803 82.7621 11.1142 82.8311 10.948 82.8311Z" fill="#061D53"/>
<path d="M182.895 87.3698L173.397 86.0759C173.048 86.0273 172.809 85.7068 172.854 85.3621L174.625 72.3789C174.669 72.0301 174.989 71.7867 175.338 71.8354L184.835 73.1333C185.18 73.1779 185.423 73.4983 185.378 73.8472L183.608 86.8303C183.559 87.1751 183.243 87.4184 182.895 87.3698Z" fill="white"/>
<path d="M173.461 85.4634L182.996 86.7654L184.77 73.7416L175.236 72.4397L173.461 85.4634ZM183.405 88.0552L183.304 88.0471L172.821 86.6153C172.623 86.591 172.449 86.4855 172.327 86.3273C172.205 86.1651 172.153 85.9704 172.181 85.7676L174.081 71.8029C174.138 71.3892 174.519 71.1012 174.928 71.158L185.411 72.5897C185.609 72.6181 185.783 72.7195 185.905 72.8777C186.026 73.0399 186.079 73.2387 186.051 73.4374L184.15 87.4022C184.122 87.605 184.021 87.7794 183.859 87.901C183.729 88.0024 183.571 88.0552 183.405 88.0552Z" fill="#061D53"/>
<path d="M181.298 80.7381C181.245 81.1153 181.104 81.4438 180.864 81.7155C180.629 81.9914 180.313 82.186 179.916 82.3077C179.519 82.4253 179.065 82.4497 178.551 82.3807C177.935 82.2955 177.445 82.109 177.076 81.8251C176.817 81.6182 176.614 81.3627 176.476 81.0585C176.338 80.7543 176.286 80.4704 176.322 80.2067C176.343 80.0526 176.411 79.9309 176.533 79.8336C176.655 79.7403 176.8 79.7038 176.962 79.7241C177.096 79.7443 177.202 79.8011 177.283 79.8985C177.364 79.9958 177.424 80.1337 177.469 80.3122C177.522 80.519 177.582 80.6975 177.659 80.8435C177.732 80.9895 177.846 81.1193 178.004 81.2288C178.158 81.3383 178.373 81.4113 178.644 81.4478C179.017 81.4965 179.333 81.4519 179.592 81.3099C179.847 81.168 179.997 80.9652 180.03 80.7056C180.058 80.4987 180.018 80.3203 179.912 80.1743C179.803 80.0283 179.653 79.9066 179.462 79.8092C179.272 79.7159 179.013 79.6064 178.689 79.4848C178.255 79.3185 177.898 79.1441 177.615 78.9615C177.331 78.779 177.121 78.5559 176.975 78.2882C176.829 78.0246 176.784 77.7082 176.833 77.3473C176.877 77.0066 177.015 76.7145 177.238 76.4712C177.461 76.2319 177.761 76.0615 178.134 75.9682C178.506 75.8709 178.936 75.8587 179.414 75.9236C179.795 75.9763 180.119 76.0696 180.386 76.1994C180.654 76.3333 180.869 76.4914 181.031 76.674C181.193 76.8565 181.306 77.0431 181.367 77.2256C181.428 77.4122 181.448 77.5866 181.428 77.7488C181.407 77.8989 181.334 78.0287 181.213 78.1341C181.087 78.2396 180.95 78.2842 180.787 78.2599C180.646 78.2436 180.54 78.1909 180.475 78.1098C180.411 78.0246 180.342 77.8948 180.277 77.7204C180.196 77.4689 180.086 77.2661 179.945 77.112C179.803 76.9579 179.556 76.8565 179.207 76.8078C178.879 76.7632 178.608 76.7997 178.389 76.9173C178.17 77.0349 178.044 77.1931 178.016 77.3919C178 77.5176 178.02 77.6312 178.077 77.7326C178.129 77.8299 178.215 77.9232 178.324 78.0043C178.433 78.0854 178.547 78.1544 178.664 78.2071C178.782 78.2599 178.976 78.341 179.248 78.4505C179.588 78.5803 179.892 78.7141 180.163 78.852C180.435 78.9899 180.662 79.1441 180.844 79.3144C181.023 79.4848 181.156 79.6835 181.237 79.9187C181.318 80.1499 181.339 80.4217 181.298 80.7381Z" fill="#061D53"/>
<path d="M189.779 79.9718C189.293 79.9718 188.867 80.3327 188.798 80.8276C188.762 81.0912 188.831 81.3508 188.993 81.5617C189.151 81.7726 189.386 81.9064 189.645 81.9429C189.908 81.9795 190.168 81.9105 190.378 81.7523C190.589 81.5901 190.727 81.3589 190.763 81.0953C190.796 80.8316 190.727 80.572 190.569 80.3611C190.407 80.1502 190.176 80.0164 189.912 79.9799C189.868 79.9717 189.823 79.9718 189.779 79.9718ZM189.783 83.1841C189.686 83.1841 189.58 83.176 189.479 83.1597C188.891 83.0827 188.373 82.7785 188.012 82.3039C187.656 81.8334 187.502 81.2494 187.583 80.6613C187.749 79.4485 188.867 78.5968 190.079 78.759C190.666 78.8401 191.189 79.1443 191.545 79.6189C191.906 80.0894 192.06 80.6734 191.979 81.2616C191.898 81.8497 191.594 82.3688 191.124 82.7298C190.731 83.0259 190.265 83.1841 189.783 83.1841Z" fill="#061D53"/>
<path d="M184.742 86.9805C184.641 86.9805 184.544 86.9724 184.442 86.9602C184.106 86.9115 183.871 86.6033 183.916 86.2666C183.96 85.93 184.272 85.6947 184.608 85.7393C184.868 85.7758 185.127 85.7069 185.338 85.5446C185.548 85.3824 185.686 85.1512 185.723 84.8916C185.796 84.3644 185.411 83.8533 184.884 83.7762C184.58 83.7397 184.341 83.4802 184.341 83.1679C184.341 82.8109 184.653 82.5229 185.014 82.5554L185.042 82.5595C186.254 82.7217 187.104 83.8452 186.938 85.0579C186.857 85.642 186.553 86.1652 186.079 86.5221C185.69 86.8223 185.224 86.9805 184.742 86.9805Z" fill="#061D53"/>
<path d="M185.925 78.3086C185.824 78.3086 185.723 78.3005 185.621 78.2883C185.285 78.2437 185.05 77.9314 185.099 77.5947C185.143 77.2581 185.451 77.0228 185.787 77.0715C186.318 77.1405 186.829 76.7552 186.902 76.2198C186.938 75.9602 186.869 75.7006 186.707 75.4897C186.545 75.2788 186.314 75.1409 186.055 75.1044L186.026 75.1003L185.99 75.0922C185.662 75.0111 185.459 74.6744 185.54 74.3459C185.621 74.0377 185.921 73.8389 186.233 73.8876C186.813 73.9687 187.327 74.2729 187.684 74.7474C188.044 75.2179 188.198 75.802 188.121 76.3861C187.967 77.5014 187.015 78.3086 185.925 78.3086Z" fill="#061D53"/>
<path d="M186.634 85.3906C186.375 85.3906 186.132 85.2203 186.051 84.9566C185.95 84.6322 186.132 84.2874 186.456 84.1901C187.38 83.9061 188.162 83.2977 188.664 82.4744C188.843 82.1824 189.219 82.0931 189.511 82.2716C189.799 82.446 189.892 82.8273 189.714 83.1152C189.053 84.1941 188.024 84.9931 186.817 85.3663C186.756 85.3825 186.695 85.3906 186.634 85.3906Z" fill="#061D53"/>
<path d="M189.609 79.627C189.353 79.627 189.114 79.4647 189.029 79.2092C188.725 78.3209 188.117 77.5665 187.311 77.0879C187.023 76.9135 186.926 76.5363 187.1 76.2443C187.275 75.9522 187.652 75.8589 187.943 76.0334C188.997 76.662 189.795 77.6517 190.188 78.8158C190.297 79.1362 190.127 79.485 189.807 79.5945C189.742 79.6188 189.673 79.627 189.609 79.627Z" fill="#061D53"/>
<path d="M13.6954 43.1841C13.5495 42.6974 13.1808 42.308 12.6987 42.1336C12.103 41.9186 11.0982 41.7402 10.4661 41.7361C10.073 41.7361 9.67998 41.7807 9.2991 41.874C8.68322 42.0281 7.74727 42.4378 7.22053 42.7825C6.79508 43.0665 6.52359 43.5288 6.49522 44.0399L6.44252 44.9971C6.42226 45.3622 6.68161 45.6785 7.04223 45.7312L7.66212 45.8205C9.45711 46.076 11.2927 45.861 12.9823 45.1877L13.5617 44.9566C13.8981 44.8227 14.0763 44.4496 13.971 44.1048L13.6954 43.1841ZM11.1792 37.9154C11.2927 38.8564 10.6201 39.7122 9.67596 39.8257C8.73187 39.9393 7.87694 39.262 7.76753 38.321C7.65408 37.3759 8.32668 36.5201 9.27077 36.4066C10.2149 36.2971 11.0698 36.9703 11.1792 37.9154Z" fill="white"/>
<path d="M9.47719 37.0106C9.43262 37.0106 9.38802 37.0146 9.34345 37.0187C9.05171 37.0552 8.78837 37.2012 8.60603 37.4324C8.4237 37.6636 8.34269 37.9556 8.37511 38.2477C8.41157 38.5397 8.55741 38.8033 8.78837 38.9858C9.02338 39.1684 9.31105 39.2495 9.60278 39.213C10.2065 39.144 10.6401 38.5924 10.5712 37.9881C10.5347 37.692 10.3889 37.4324 10.1579 37.2499C9.9594 37.0917 9.7203 37.0106 9.47719 37.0106ZM9.46912 40.4541C8.94642 40.4541 8.44399 40.2797 8.03069 39.9512C7.54041 39.5659 7.22836 39.0102 7.15542 38.3937C7.08249 37.7731 7.25672 37.1607 7.64165 36.6699C8.02658 36.1832 8.5817 35.8709 9.19759 35.7979C9.81753 35.7249 10.4294 35.8952 10.9156 36.2805C11.4059 36.6699 11.7179 37.2215 11.7908 37.8421C11.8637 38.4626 11.6895 39.071 11.3046 39.5618C10.9197 40.0526 10.3686 40.3608 9.74864 40.4338C9.65544 40.446 9.56231 40.4541 9.46912 40.4541ZM10.4416 42.3523C10.1053 42.3523 9.77295 42.3929 9.44474 42.474C8.89369 42.6078 8.03065 42.9851 7.55657 43.2974C7.2932 43.4718 7.12707 43.7597 7.11087 44.0761L7.05824 45.0333C7.05419 45.0779 7.08657 45.1144 7.12709 45.1226L7.74706 45.2118C9.4367 45.4551 11.1668 45.2483 12.7552 44.6156L13.3346 44.3844C13.3751 44.3681 13.3994 44.3235 13.3832 44.2789L13.1077 43.3623C13.0185 43.0621 12.7876 42.8188 12.4918 42.7133C11.961 42.5186 11.0291 42.3523 10.4618 42.3523H10.4416ZM9.13278 46.5381C8.61414 46.5381 8.09144 46.5016 7.5728 46.4286L6.95283 46.3393C6.27616 46.242 5.78996 45.6498 5.83048 44.9644L5.88319 44.0072C5.92371 43.3055 6.29645 42.6565 6.88398 42.2712C7.4715 41.8818 8.46827 41.4478 9.15304 41.2775C9.58254 41.172 10.0242 41.1234 10.4699 41.1234C11.1749 41.1274 12.2446 41.314 12.9091 41.5533C13.5696 41.7926 14.0842 42.3361 14.2827 43.0094L14.5623 43.926C14.7568 44.5831 14.4246 45.2726 13.7884 45.5282L13.209 45.7593C11.9083 46.2744 10.5266 46.5381 9.13278 46.5381Z" fill="#061D53"/>
<path d="M20.6851 37.047C20.5676 36.6455 20.2677 36.321 19.8787 36.175C19.3925 35.9965 18.5781 35.8464 18.0676 35.8424C17.7475 35.8424 17.4314 35.8789 17.1194 35.956C16.621 36.0777 15.8674 36.4143 15.4379 36.7023C15.0935 36.9335 14.8787 37.3188 14.8544 37.7406L14.8139 38.5356C14.7977 38.8317 15.0084 39.0953 15.3001 39.1399L15.8025 39.217C17.2572 39.4319 18.7443 39.2575 20.1097 38.7019L20.5797 38.5153C20.8553 38.4017 20.9971 38.0975 20.912 37.8095L20.6851 37.047ZM18.566 32.2691C18.6592 33.0478 18.1122 33.7576 17.3504 33.8469C16.5887 33.9361 15.8917 33.3764 15.7985 32.5976C15.7094 31.8148 16.2523 31.1091 17.0141 31.0198C17.7799 30.9266 18.4728 31.4863 18.566 32.2691Z" fill="white"/>
<path d="M17.1759 31.6245L17.0868 31.6285C16.6613 31.6772 16.3574 32.0828 16.4101 32.5249C16.4344 32.7399 16.5397 32.9346 16.7099 33.0684C16.872 33.2023 17.0746 33.259 17.2772 33.2347C17.4798 33.2144 17.6661 33.109 17.7917 32.9427C17.9214 32.7723 17.9822 32.5574 17.9538 32.3424C17.9052 31.9287 17.5649 31.6245 17.1759 31.6245ZM17.184 34.4718C16.7342 34.4718 16.2966 34.3176 15.936 34.0256C15.5187 33.689 15.2553 33.2063 15.1904 32.6709C15.0567 31.5515 15.8428 30.5375 16.9408 30.4077C18.0389 30.2779 19.0438 31.081 19.1735 32.1964C19.2383 32.7358 19.0924 33.2671 18.7642 33.693C18.4319 34.123 17.9579 34.3947 17.423 34.4556C17.342 34.4677 17.265 34.4718 17.184 34.4718ZM15.4255 38.5399L15.8915 38.6089C17.2367 38.8076 18.6184 38.6454 19.8826 38.1343L20.3161 37.9599L20.0973 37.2217C20.0325 37.0068 19.8704 36.8283 19.6638 36.7512C19.2505 36.5971 18.5009 36.4633 18.0633 36.4592C17.7958 36.4551 17.5284 36.4876 17.2691 36.5525C16.8437 36.6579 16.1467 36.9662 15.778 37.2136C15.5956 37.3353 15.4782 37.5462 15.466 37.7733L15.4255 38.5399ZM17.0178 39.9189C16.5802 39.9189 16.1427 39.8906 15.7091 39.8257L15.2107 39.7486C14.6029 39.6594 14.1653 39.124 14.1977 38.5034L14.2423 37.7084C14.2747 37.096 14.5907 36.5322 15.0972 36.1915C15.5835 35.867 16.406 35.502 16.9733 35.36C17.3299 35.2708 17.6986 35.2262 18.0713 35.2303C18.6548 35.2343 19.5422 35.3965 20.0892 35.5993C20.6565 35.8102 21.1021 36.2848 21.2764 36.8729L21.4992 37.6354C21.6775 38.2317 21.3817 38.8522 20.8104 39.0834L20.3404 39.274C19.2828 39.704 18.1524 39.9189 17.0178 39.9189Z" fill="#061D53"/>
<path d="M134.292 135.766H58.2137C56.5443 135.766 55.6528 133.803 56.7468 132.541L64.2753 123.902H129.033L135.824 132.626C136.82 133.904 135.909 135.766 134.292 135.766Z" fill="#5C88F0"/>
<path d="M160.066 124.514H32.087C31.7467 124.514 31.4712 124.238 31.4712 123.902C31.4712 123.561 31.7467 123.285 32.087 123.285H160.066C160.403 123.285 160.678 123.561 160.678 123.902C160.678 124.238 160.403 124.514 160.066 124.514Z" fill="#061D53"/>
<path d="M50.1584 17.2256H80.6449C80.6449 17.2256 80.2842 10.736 75.2639 8.90273C70.2477 7.06943 67.2412 13.0642 67.2412 13.0642C67.2412 13.0642 64.6399 -0.000132773 55.2962 -0.000132773C45.9525 -0.000132773 41.9816 8.6107 41.9816 8.6107C41.9816 8.6107 39.1777 6.48942 35.2069 8.6107C31.232 10.736 31.9329 17.2256 31.9329 17.2256H50.1584Z" fill="#5C88F0"/>
<path d="M133.186 17.0068H148.429C148.429 17.0068 148.247 13.7621 145.739 12.8454C143.23 11.9287 141.727 14.9261 141.727 14.9261C141.727 14.9261 140.427 8.39195 135.755 8.39195C131.083 8.39195 129.097 12.6994 129.097 12.6994C129.097 12.6994 127.695 11.6367 125.71 12.6994C123.725 13.7621 124.073 17.0068 124.073 17.0068H133.186Z" fill="#5C88F0"/>
</svg>
